# xmcd
#
# Track frame offsets: 
#        150
#        12466
#        22926
#        36566
#        49338
#        57425
#        70464
#        83379
#        93292
#        105359
#        113041
#        124451
#        137714
#        149952
#        161493
#        173941
#        181072
#        191576
#        197927
#        206265
#
# Disc length: 2856 seconds
#
# Revision: 0
# Processed by: cddbd v1.5.2PL0 Copyright (c) Steve Scherf et al.
# Submitted via: ExactAudioCopy v1.0b4
#
DISCID=220b2614
DTITLE=Various Artist - Country Greats CD1
DYEAR=2014
DGENRE=Country
TTITLE0=Patsy Cline - Crazy
TTITLE1=Jim Reeves - He'll Have To Go
TTITLE2=Jimmy Dean - Big Bad John
TTITLE3=Johnny Bond and His Red River Valley Boys - Smoke! Smoke! Smoke!
TTITLE3=(That Cigarette)
TTITLE4=Rex Allen And His Arizona Wranglers With Bonnie Allen - Headin
TTITLE4=' For The Open Range
TTITLE5=Hank Williams - Jambalaya (On The Bayou)
TTITLE6=Bill Monroe and The Bluegrass Boys - Lonesome Truck Driver's Blu
TTITLE6=es
TTITLE7=Jean Shepard - I Didn't Know The Gun Was Loaded
TTITLE8=Lester Flatt, Earl Scruggs and The Froggy Mountain Boys - Foggy 
TTITLE8=Mountain Breakdown
TTITLE9=Pee Wee King and His Golden West Cowboys - Flower Of Texas
TTITLE10=Patsy Montana and Her Buckaroos - Mama Never Said A Word About 
TTITLE10=Love
TTITLE11=Jimmy Wakely - Song Of The Sierras
TTITLE12=Hank Thompson - The Wild Side Of Life
TTITLE13=Burl Ives - Makes No Difference Now
TTITLE14=Hank Snow - Too Many Tears
TTITLE15=Red Foley and His Crossroad Boys - Freight Train Boogie
TTITLE16=Tex Williams - Do Ya Or Don't Cha
TTITLE17=Tennessee Ernie Ford - John Henry
TTITLE18=Ferlin Husky - I Feel Better All Over (More Than Anywhere Els
TTITLE18=e - live)
TTITLE19=Jim Reeves - Bimbo (live - intro by Jimmy Dean))
EXTD=
EXTT0=
EXTT1=
EXTT2=
EXTT3=
EXTT4=
EXTT5=
EXTT6=
EXTT7=
EXTT8=
EXTT9=
EXTT10=
EXTT11=
EXTT12=
EXTT13=
EXTT14=
EXTT15=
EXTT16=
EXTT17=
EXTT18=
EXTT19=
PLAYORDER=
